<?xml version="1.0" encoding="UTF-8" standalone="no"?>
<svg
   xmlns:dc="http://purl.org/dc/elements/1.1/"
   xmlns:cc="http://creativecommons.org/ns#"
   xmlns:rdf="http://www.w3.org/1999/02/22-rdf-syntax-ns#"
   xmlns:svg="http://www.w3.org/2000/svg"
   xmlns="http://www.w3.org/2000/svg"
   id="SVGRoot"
   version="1.1"
   viewBox="0 0 24 24"
   height="24px"
   width="24px">
  <defs
     id="defs4190" />
  <metadata
     id="metadata4193">
    <rdf:RDF>
      <cc:Work
         rdf:about="">
        <dc:format>image/svg+xml</dc:format>
        <dc:type
           rdf:resource="http://purl.org/dc/dcmitype/StillImage" />
        <dc:title></dc:title>
      </cc:Work>
    </rdf:RDF>
  </metadata>
  <g
     id="layer1">
    <path
       style="stroke-width:1.1518085"
       d="M 11.956248,16.323294 A 4.9484526,4.2895442 0 0 1 7.007795,12.03375 4.9484526,4.2895442 0 0 1 11.956248,7.7442058 4.9484526,4.2895442 0 0 1 16.9047,12.03375 4.9484526,4.2895442 0 0 1 11.956248,16.323294 m 8.288657,-3.86059 c -0.346392,-0.171581 -0.705154,-0.310992 -1.063917,-0.428954 0.358763,-0.117962 0.717525,-0.257373 1.063917,-0.428954 2.375258,-1.179625 3.698969,-3.3243972 3.711341,-5.5656841 -2.214433,-1.1045576 -5.035051,-1.1903485 -7.42268,0 -0.346391,0.1715818 -0.66804,0.3753352 -0.964949,0.5790885 0.06187,-0.3324397 0.09897,-0.6756032 0.09897,-1.0187668 1e-6,-2.3806969 -1.496906,-4.4504021 -3.711339,-5.5656836 -2.2144328,1.1152815 -3.7113398,3.1849867 -3.7113398,5.5656836 0,0.3431636 0.037114,0.6863271 0.098968,1.0187668 C 8.04697,6.4037232 7.7253206,6.1999699 7.3789289,6.0283881 c -2.3752573,-1.1903486 -5.1958752,-1.1045577 -7.4226789,0 0,2.2198391 1.323711,4.3967829 3.7113395,5.5656839 0.3463916,0.17158 0.7051545,0.310992 1.0639174,0.439678 -0.3587629,0.107236 -0.7175258,0.246649 -1.0639174,0.418231 -2.3752573,1.190348 -3.69896837,3.33512 -3.7113395,5.565682 2.2144326,1.104559 5.0350505,1.19035 7.4226789,0 0.3463917,-0.171581 0.6680411,-0.375334 0.9649482,-0.579087 -0.061856,0.343163 -0.098968,0.686327 -0.098968,1.02949 0,2.380697 1.496907,4.450402 3.7113389,5.565684 2.214434,-1.115282 3.711341,-3.184987 3.711341,-5.565684 0,-0.343163 -0.03712,-0.686327 -0.09897,-1.018766 0.29691,0.214477 0.618559,0.407506 0.96495,0.579088 2.375257,1.190349 5.195874,1.104558 7.422679,0 -0.01237,-2.241287 -1.336083,-4.386059 -3.711341,-5.565684 z"
       id="path4213" />
    <path
       style="stroke-width:0.36018664"
       d="m 15.390618,10.3198 c 0.147872,-0.133445 0.147872,-0.3558532 0,-0.4824547 L 14.503396,9.0366757 c -0.140288,-0.1334469 -0.38674,-0.1334469 -0.53461,0 l -0.697646,0.6261646 1.421832,1.2831267 m -6.017197,2.867357 v 1.283126 h 1.421834 l 4.193459,-3.787788 -1.421833,-1.283124 z"
       id="path4248" />
  </g>
</svg>
