<?xml version="1.0" encoding="UTF-8" standalone="no"?>
<svg
   xmlns:dc="http://purl.org/dc/elements/1.1/"
   xmlns:cc="http://creativecommons.org/ns#"
   xmlns:rdf="http://www.w3.org/1999/02/22-rdf-syntax-ns#"
   xmlns:svg="http://www.w3.org/2000/svg"
   xmlns="http://www.w3.org/2000/svg"
   id="SVGRoot"
   version="1.1"
   viewBox="0 0 24 24"
   height="24px"
   width="24px">
  <defs
     id="defs4190" />
  <metadata
     id="metadata4193">
    <rdf:RDF>
      <cc:Work
         rdf:about="">
        <dc:format>image/svg+xml</dc:format>
        <dc:type
           rdf:resource="http://purl.org/dc/dcmitype/StillImage" />
        <dc:title></dc:title>
      </cc:Work>
    </rdf:RDF>
  </metadata>
  <g
     id="layer1">
    <path
       style="stroke-width:0.95984042"
       d="M 12.018749,15.82712 A 4.1237108,3.5746202 0 0 1 7.895038,12.2525 4.1237108,3.5746202 0 0 1 12.018749,8.67788 4.1237108,3.5746202 0 0 1 16.14246,12.2525 4.1237108,3.5746202 0 0 1 12.018749,15.82712 m 6.907215,-3.217158 c -0.28866,-0.142984 -0.587628,-0.25916 -0.886598,-0.357462 0.29897,-0.0983 0.597938,-0.214477 0.886598,-0.357462 1.979382,-0.98302 3.082474,-2.770331 3.092784,-4.6380697 -1.845361,-0.9204647 -4.195876,-0.9919571 -6.185567,0 -0.288659,0.1429848 -0.5567,0.3127793 -0.804124,0.4825737 0.05156,-0.2770331 0.08248,-0.5630027 0.08248,-0.8489723 C 15.111533,4.9066556 13.86411,3.1819013 12.018749,2.2525 10.173388,3.1819013 8.9259657,4.9066556 8.9259657,6.8905697 c 0,0.2859696 0.030928,0.5719392 0.082473,0.8489723 C 8.7610172,7.560811 8.492976,7.3910166 8.2043163,7.2480318 6.224935,6.2560746 3.8744199,6.327567 2.01875,7.2480318 c 0,1.8498662 1.1030926,3.6639862 3.0927832,4.6380702 0.2886597,0.142983 0.5876288,0.25916 0.8865979,0.366398 -0.2989691,0.08936 -0.5979382,0.205541 -0.8865979,0.348526 -1.9793813,0.991957 -3.0824739,2.779267 -3.0927832,4.638068 1.8453607,0.920466 4.1958758,0.991959 6.1855663,0 0.2886597,-0.142984 0.5567009,-0.312778 0.8041235,-0.482572 -0.051547,0.285969 -0.082473,0.571939 -0.082473,0.857908 0,1.983914 1.2474222,3.708668 3.0927822,4.63807 1.845362,-0.929402 3.092785,-2.654156 3.092785,-4.63807 0,-0.285969 -0.03093,-0.571939 -0.08248,-0.848972 0.247425,0.178731 0.515465,0.339589 0.804125,0.482574 1.979381,0.991957 4.329895,0.920465 6.185566,0 -0.01031,-1.867739 -1.113403,-3.655049 -3.092784,-4.63807 z"
       id="path4213" />
    <path
       style="stroke-width:0.27773914"
       d="m 14.250786,11.02901 c 0.108319,-0.108318 0.108319,-0.288848 0,-0.391612 L 13.600877,9.98749 c -0.102764,-0.10832 -0.283295,-0.10832 -0.391613,0 l -0.51104,0.508261 1.041522,1.041523 m -4.407721,2.327454 v 1.041522 h 1.041522 l 3.071795,-3.074573 -1.041521,-1.041521 z"
       id="path4248" />
  </g>
</svg>
