<?xml version="1.0" encoding="UTF-8" standalone="no"?>
<svg
   xmlns:dc="http://purl.org/dc/elements/1.1/"
   xmlns:cc="http://creativecommons.org/ns#"
   xmlns:rdf="http://www.w3.org/1999/02/22-rdf-syntax-ns#"
   xmlns:svg="http://www.w3.org/2000/svg"
   xmlns="http://www.w3.org/2000/svg"
   width="24px"
   height="24px"
   viewBox="0 0 24 24"
   version="1.1"
   id="SVGRoot">
  <defs
     id="defs4336">
    <radialGradient
       gradientTransform="matrix(0.05536737,0,0,0.05014214,1.7514249,7.8692919)"
       gradientUnits="userSpaceOnUse"
       r="127.8006"
       cy="68.449997"
       cx="115.5686"
       id="SVGID_1_">
      <stop
         id="stop4138"
         style="stop-color:#328F8A"
         offset="0" />
      <stop
         id="stop4140"
         style="stop-color:#08AC4B"
         offset="1" />
    </radialGradient>
  </defs>
  <metadata
     id="metadata4339">
    <rdf:RDF>
      <cc:Work
         rdf:about="">
        <dc:format>image/svg+xml</dc:format>
        <dc:type
           rdf:resource="http://purl.org/dc/dcmitype/StillImage" />
        <dc:title></dc:title>
      </cc:Work>
    </rdf:RDF>
  </metadata>
  <g
     transform="translate(2.6440678,-2.8474576)"
     id="layer1">
    <path
       id="path4143"
       d="m 7.6425162,10.256058 -5.0882643,5.0092 C 2.4767267,15.154947 2.4047751,15.039618 2.3438697,14.924293 l 5.3318797,-4.813647 c 0.033102,-0.02509 0.1273503,-0.100284 0.099649,-0.06519 -0.016551,0.01505 -0.1051907,0.160455 -0.1328899,0.210597 z m -0.1384304,0.606721 c 0,0 0,0 0,0 l -3.2998975,5.916773 c 0.110731,0.06519 0.227002,0.130371 0.3432797,0.185527 l 2.9676889,-5.931817 c -0.00542,-0.05515 -0.011152,-0.110313 -0.011152,-0.170484 z m 0.066442,-0.431223 c -0.00542,-0.005 -0.016551,0.02006 -0.038739,0.04513 l -4.3961724,5.480537 c 0.099651,0.100283 0.1993362,0.19054 0.3100673,0.280795 l 4.080572,-5.600875 c 0.00542,-0.06018 0.027694,-0.145411 0.044286,-0.205582 z m 2.8569582,1.358851 1.899098,-0.01004 c -0.02229,-0.09025 -0.04429,-0.225639 -0.06644,-0.315894 l -1.760679,0.240683 c -0.02229,0.03008 -0.04429,0.05515 -0.07199,0.08524 z m -1.5724343,0.531508 1.8603413,3.931143 c 0.09411,-0.08022 0.188256,-0.165469 0.276826,-0.250709 L 8.9547008,12.336958 c -0.027703,-0.005 -0.066442,-0.01003 -0.09965,-0.01504 z m 1.7883623,-0.852417 c 0.0054,0 0.01655,-0.005 0.02229,-0.01004 l 1.273443,-0.787221 c -0.04982,-0.09025 -0.127346,-0.220625 -0.182712,-0.310881 L 10.715527,11.294 c -0.01655,0.06519 -0.04429,0.120342 -0.07199,0.175498 z m -0.459547,0.54655 c -0.02229,0.01505 -0.04982,0.0351 -0.07199,0.05014 l 2.308819,0.932644 c 0.0054,-0.09026 0.02229,-0.220625 0.02229,-0.310882 z M 7.5705267,11.283972 5.4665654,17.316073 c 0.1328913,0.04011 0.2657818,0.07019 0.3986451,0.100284 l 1.7551446,-5.997001 c -0.016551,-0.04512 -0.03311,-0.09025 -0.049833,-0.135385 z m 1.7219239,1.058 2.2645274,3.008528 c 0.0609,-0.09026 0.155018,-0.220625 0.210382,-0.310882 L 9.3754892,12.331943 c -0.022287,0.005 -0.049825,0.005 -0.083064,0.01004 z m 0.4318661,-0.09026 2.4361653,1.970586 c 0.03311,-0.09025 0.08307,-0.230653 0.110732,-0.325923 L 9.801828,12.221631 c -0.027711,0.01005 -0.055372,0.02006 -0.077528,0.03008 z m -1.2845214,-0.05013 1.1128841,4.798604 c 0.1162709,-0.05515 0.2547022,-0.125357 0.3598872,-0.185528 L 8.5283801,12.241695 c -0.027694,-0.01505 -0.060903,-0.03008 -0.088571,-0.04011 z M 8.0632964,11.97594 8.2404727,17.431404 c 0.1384304,-0.03007 0.2768272,-0.06017 0.4152552,-0.09527 L 8.1574226,12.046138 c -0.038747,-0.02506 -0.066442,-0.05014 -0.094111,-0.07019 z M 6.8452176,17.5367 c 0.077525,0.005 0.1605566,0.005 0.2436215,0.005 0.055358,0 0.1107307,0 0.1716364,-0.005 L 7.841834,11.760325 C 7.814131,11.730245 7.792009,11.695135 7.764306,11.660041 Z m 2.1704,-8.1631423 h 0.022287 c 0.033102,0 0.071989,-0.00501 0.1051916,-0.00501 0.9080238,0 1.6444118,0.6668903 1.6444118,1.4892223 0,0.08524 -0.01114,0.170482 -0.02229,0.255724 0.01655,0 0.03311,-0.01004 0.03875,-0.02006 L 11.213685,9.6593765 C 11.13062,9.5691219 11.025429,9.4437657 10.931318,9.3585237 l -0.127351,1.0279143 c -0.02229,-0.06519 -0.05536,-0.130371 -0.12181,-0.255723 -0.02229,-0.04011 -0.04983,-0.08524 -0.08307,-0.125357 L 10.194909,8.7768752 C 10.056479,8.6866205 9.912542,8.6013773 9.7630453,8.5211515 L 10.289035,9.6794351 C 10.194924,9.5992065 10.100777,9.5290096 10.050953,9.4888937 L 8.943605,8.1701554 C 8.7664296,8.1099846 8.5837162,8.0598427 8.3954664,8.0147153 l 1.3509664,1.373895 -0.03311,-0.00501 L 7.5318498,7.8893687 C 7.3878795,7.879328 7.238402,7.8693164 7.0889084,7.8693164 c -0.038748,0 -0.083065,0 -0.1218102,0.00501 L 9.120892,9.1780168 6.1255179,7.949534 C 5.9538822,7.9796212 5.7877849,8.0147188 5.6216748,8.0548322 L 8.8662021,9.2081029 4.763479,8.3506721 C 4.6084649,8.4208721 4.458954,8.4910688 4.3094672,8.576312 L 8.4675593,9.2632592 3.5730822,9.0677033 C 3.4623511,9.1579581 3.2962546,9.2983576 3.1965832,9.3986416 L 8.2737747,9.373584 2.6484477,10.025432 C 2.5543364,10.150788 2.4712712,10.281156 2.388206,10.411526 L 8.1076574,9.5089678 2.0006373,11.233858 c -0.044286,0.125355 -0.083065,0.250712 -0.116271,0.38108 L 7.9803161,9.6493658 1.7570221,12.452311 c -0.00541,0.08524 -0.00541,0.170484 -0.00541,0.255724 0,0.0351 -0.00541,0.115327 -0.00541,0.150425 L 7.8975196,9.7997899 1.8624753,13.705862 c 0.0277,0.125358 0.066445,0.245699 0.1051912,0.371054 L 7.880912,9.9151167 c 0.027694,-0.030083 0.060903,-0.060166 0.088605,-0.090254 C 8.0359591,9.7697018 8.1300737,9.6944917 8.2352645,9.6242948 8.4511873,9.4838981 8.7778643,9.3936405 9.0159417,9.3735855 Z"
       style="fill:url(#SVGID_1_);stroke-width:0.05269003" />
    <path
       style="stroke-width:0.91592884"
       d="M 14.471186,5.3559323 H -0.47118599 A 1.8677966,1.7966102 0 0 0 -2.3389826,7.1525425 V 23.322034 L 1.3966106,19.728813 H 14.471186 a 1.8677966,1.7966102 0 0 0 1.867797,-1.79661 V 7.1525425 A 1.8677966,1.7966102 0 0 0 14.471186,5.3559323 m 0,12.5762707 H 1.3966106 l -1.86779659,1.79661 V 7.1525425 H 14.471186"
       id="path2633" />
    <path
       style="stroke-width:0.41623864"
       d="m 16.955052,16.504136 h 2.225354 v 3.737031 h 1.795119 l -2.907796,3.662291 -2.907797,-3.662291 h 1.79512 z"
       id="path2654" />
  </g>
</svg>
