<?xml version="1.0" encoding="UTF-8" standalone="no"?>
<!-- Created with Inkscape (http://www.inkscape.org/) -->

<svg
   xmlns:dc="http://purl.org/dc/elements/1.1/"
   xmlns:cc="http://creativecommons.org/ns#"
   xmlns:rdf="http://www.w3.org/1999/02/22-rdf-syntax-ns#"
   xmlns:svg="http://www.w3.org/2000/svg"
   xmlns="http://www.w3.org/2000/svg"
   xmlns:sodipodi="http://sodipodi.sourceforge.net/DTD/sodipodi-0.dtd"
   xmlns:inkscape="http://www.inkscape.org/namespaces/inkscape"
   width="24px"
   height="24px"
   viewBox="0 0 24 24"
   version="1.1"
   id="SVGRoot"
   inkscape:version="0.92.4 (5da689c313, 2019-01-14)"
   sodipodi:docname="filter-import-icon.svg">
  <defs
     id="defs1366" />
  <sodipodi:namedview
     id="base"
     pagecolor="#ffffff"
     bordercolor="#666666"
     borderopacity="1.0"
     inkscape:pageopacity="0.0"
     inkscape:pageshadow="2"
     inkscape:zoom="10.666667"
     inkscape:cx="15.375"
     inkscape:cy="12"
     inkscape:document-units="px"
     inkscape:current-layer="layer1"
     showgrid="false"
     inkscape:window-width="1920"
     inkscape:window-height="1001"
     inkscape:window-x="-9"
     inkscape:window-y="-9"
     inkscape:window-maximized="1"
     inkscape:grid-bbox="true" />
  <metadata
     id="metadata1369">
    <rdf:RDF>
      <cc:Work
         rdf:about="">
        <dc:format>image/svg+xml</dc:format>
        <dc:type
           rdf:resource="http://purl.org/dc/dcmitype/StillImage" />
        <dc:title></dc:title>
      </cc:Work>
    </rdf:RDF>
  </metadata>
  <g
     inkscape:label="Layer 1"
     inkscape:groupmode="layer"
     id="layer1">
    <path
       id="path1932"
       d="M 9.046875,13.622319 A 3.6713917,3.497319 0 0 1 5.3754833,10.125 3.6713917,3.497319 0 0 1 9.046875,6.627681 3.6713917,3.497319 0 0 1 12.718267,10.125 3.6713917,3.497319 0 0 1 9.046875,13.622319 m 6.149582,-3.147587 C 14.939459,10.334839 14.673283,10.221176 14.407107,10.125 14.673283,10.02882 14.939459,9.9151608 15.196457,9.7752677 16.958724,8.8135054 17.940822,7.0648458 17.95,5.2374967 c -1.642948,-0.9005597 -3.735641,-0.970506 -5.507088,0 -0.256997,0.1398927 -0.495638,0.3060153 -0.715921,0.472138 0.04589,-0.2710422 0.07343,-0.5508277 0.07343,-0.8306132 C 11.800418,2.9380093 10.689823,1.2505529 9.046875,0.34125 7.4039272,1.2505529 6.2933311,2.9380093 6.2933311,4.8790215 c 0,0.2797855 0.027535,0.559571 0.073428,0.8306132 C 6.1464755,5.5347688 5.9078351,5.3686462 5.6508376,5.2287533 c -1.762268,-0.970506 -3.8549613,-0.9005596 -5.5070876,0 0,1.8098627 0.9820973,3.5847521 2.7535439,4.5377716 C 3.1542912,9.906418 3.4204671,10.020081 3.686643,10.125 3.4204671,10.212428 3.1542912,10.326095 2.8972939,10.465989 1.1350258,11.436495 0.15292845,13.185155 0.14375,15.00376 c 1.6429478,0.90056 3.7356411,0.970507 5.5070876,0 0.2569975,-0.139893 0.4956379,-0.306015 0.7159214,-0.472138 -0.045892,0.279786 -0.073428,0.559571 -0.073428,0.839356 0,1.941013 1.110596,3.628469 2.7535443,4.537772 1.6429477,-0.909303 2.7535427,-2.596759 2.7535427,-4.537772 0,-0.279785 -0.02754,-0.55957 -0.07343,-0.830613 0.220283,0.174866 0.458924,0.332246 0.715921,0.472138 1.762268,0.970506 3.854962,0.90056 5.507087,0 -0.0092,-1.827348 -0.991275,-3.576008 -2.753542,-4.537771 z"
       inkscape:connector-curvature="0"
       style="stroke-width:0.89582467" />
    <path
       id="path1995"
       d="m 18.893256,12.705 h 2.807238 v 4.117424 H 23.965 L 20.296875,20.8575 16.62875,16.822424 h 2.264506 z"
       inkscape:connector-curvature="0"
       style="stroke-width:0.49071783" />
  </g>
</svg>
