<?xml version="1.0" encoding="UTF-8" standalone="no"?>
<!-- Created with Inkscape (http://www.inkscape.org/) -->

<svg
   xmlns:dc="http://purl.org/dc/elements/1.1/"
   xmlns:cc="http://creativecommons.org/ns#"
   xmlns:rdf="http://www.w3.org/1999/02/22-rdf-syntax-ns#"
   xmlns:svg="http://www.w3.org/2000/svg"
   xmlns="http://www.w3.org/2000/svg"
   xmlns:sodipodi="http://sodipodi.sourceforge.net/DTD/sodipodi-0.dtd"
   xmlns:inkscape="http://www.inkscape.org/namespaces/inkscape"
   width="24px"
   height="24px"
   viewBox="0 0 24 24"
   version="1.1"
   id="SVGRoot"
   inkscape:version="0.92.4 (5da689c313, 2019-01-14)"
   sodipodi:docname="filter-import-icon.svg">
  <defs
     id="defs1366" />
  <sodipodi:namedview
     id="base"
     pagecolor="#ffffff"
     bordercolor="#666666"
     borderopacity="1.0"
     inkscape:pageopacity="0.0"
     inkscape:pageshadow="2"
     inkscape:zoom="10.666667"
     inkscape:cx="15.375"
     inkscape:cy="12"
     inkscape:document-units="px"
     inkscape:current-layer="layer1"
     showgrid="false"
     inkscape:window-width="1920"
     inkscape:window-height="1001"
     inkscape:window-x="-9"
     inkscape:window-y="-9"
     inkscape:window-maximized="1"
     inkscape:grid-bbox="true" />
  <metadata
     id="metadata1369">
    <rdf:RDF>
      <cc:Work
         rdf:about="">
        <dc:format>image/svg+xml</dc:format>
        <dc:type
           rdf:resource="http://purl.org/dc/dcmitype/StillImage" />
        <dc:title></dc:title>
      </cc:Work>
    </rdf:RDF>
  </metadata>
  <g
     inkscape:label="Layer 1"
     inkscape:groupmode="layer"
     id="layer1">
    <path
       id="path1932"
       d="M 9.046875,13.622319 A 3.6713917,3.497319 0 0 1 5.3754833,10.125 3.6713917,3.497319 0 0 1 9.046875,6.627681 3.6713917,3.497319 0 0 1 12.718267,10.125 3.6713917,3.497319 0 0 1 9.046875,13.622319 m 6.149582,-3.147587 C 14.939459,10.334839 14.673283,10.221176 14.407107,10.125 14.673283,10.02882 14.939459,9.9151608 15.196457,9.7752677 16.958724,8.8135054 17.940822,7.0648458 17.95,5.2374967 c -1.642948,-0.9005597 -3.735641,-0.970506 -5.507088,0 -0.256997,0.1398927 -0.495638,0.3060153 -0.715921,0.472138 0.04589,-0.2710422 0.07343,-0.5508277 0.07343,-0.8306132 C 11.800418,2.9380093 10.689823,1.2505529 9.046875,0.34125 7.4039272,1.2505529 6.2933311,2.9380093 6.2933311,4.8790215 c 0,0.2797855 0.027535,0.559571 0.073428,0.8306132 C 6.1464755,5.5347688 5.9078351,5.3686462 5.6508376,5.2287533 c -1.762268,-0.970506 -3.8549613,-0.9005596 -5.5070876,0 0,1.8098627 0.9820973,3.5847521 2.7535439,4.5377716 C 3.1542912,9.906418 3.4204671,10.020081 3.686643,10.125 3.4204671,10.212428 3.1542912,10.326095 2.8972939,10.465989 1.1350258,11.436495 0.15292845,13.185155 0.14375,15.00376 c 1.6429478,0.90056 3.7356411,0.970507 5.5070876,0 0.2569975,-0.139893 0.4956379,-0.306015 0.7159214,-0.472138 -0.045892,0.279786 -0.073428,0.559571 -0.073428,0.839356 0,1.941013 1.110596,3.628469 2.7535443,4.537772 1.6429477,-0.909303 2.7535427,-2.596759 2.7535427,-4.537772 0,-0.279785 -0.02754,-0.55957 -0.07343,-0.830613 0.220283,0.174866 0.458924,0.332246 0.715921,0.472138 1.762268,0.970506 3.854962,0.90056 5.507087,0 -0.0092,-1.827348 -0.991275,-3.576008 -2.753542,-4.537771 z"
       inkscape:connector-curvature="0"
       style="stroke-width:0.89582467" />
    <path
       id="path2016"
       d="M 20.379082,19.9875 A 1.3242216,1.1375001 0 0 1 19.05486,18.85 a 1.3242216,1.1375001 0 0 1 1.324222,-1.1375 1.3242216,1.1375001 0 0 1 1.324221,1.1375 1.3242216,1.1375001 0 0 1 -1.324221,1.1375 m 2.811133,-0.82225 c 0.01513,-0.104 0.02649,-0.208 0.02649,-0.31525 0,-0.107248 -0.01135,-0.2145 -0.02649,-0.325001 l 0.798317,-0.529749 c 0.07189,-0.04875 0.0908,-0.1365 0.04541,-0.208 l -0.756699,-1.1245 c -0.0454,-0.0715 -0.147556,-0.100752 -0.230792,-0.0715 l -0.942094,0.325 C 21.907616,16.7895 21.703308,16.679001 21.464949,16.59775 L 21.324959,15.7365 C 21.309819,15.6585 21.230379,15.6 21.135785,15.6 h -1.513396 c -0.09459,0 -0.174041,0.0585 -0.189175,0.1365 l -0.139989,0.86125 c -0.23836,0.08125 -0.442668,0.19175 -0.63941,0.3185 l -0.942089,-0.325 c -0.08323,-0.02925 -0.185391,0 -0.230793,0.0715 l -0.756698,1.1245 c -0.04919,0.0715 -0.02649,0.15925 0.04541,0.208 l 0.798317,0.529749 c -0.01513,0.110496 -0.02649,0.217751 -0.02649,0.325001 0,0.107248 0.01135,0.21125 0.02649,0.31525 l -0.798317,0.5395 c -0.07189,0.04875 -0.09458,0.1365 -0.04541,0.208 l 0.756698,1.1245 c 0.04541,0.0715 0.147557,0.0975 0.230793,0.0715 l 0.942089,-0.32825 c 0.196742,0.13 0.40105,0.240499 0.63941,0.32175 l 0.139989,0.86125 c 0.01514,0.078 0.09458,0.1365 0.189175,0.1365 h 1.513396 c 0.09459,0 0.17404,-0.0585 0.189174,-0.1365 l 0.13999,-0.86125 c 0.238359,-0.0845 0.442667,-0.19175 0.639408,-0.32175 l 0.94209,0.32825 c 0.08323,0.026 0.185391,0 0.230792,-0.0715 l 0.756699,-1.1245 c 0.0454,-0.0715 0.02649,-0.15925 -0.0454,-0.208 z"
       inkscape:connector-curvature="0"
       style="stroke-width:0.35066146" />
  </g>
</svg>
