<?xml version="1.0" encoding="UTF-8" standalone="no"?>
<!-- Created with Inkscape (http://www.inkscape.org/) -->

<svg
   xmlns:dc="http://purl.org/dc/elements/1.1/"
   xmlns:cc="http://creativecommons.org/ns#"
   xmlns:rdf="http://www.w3.org/1999/02/22-rdf-syntax-ns#"
   xmlns:svg="http://www.w3.org/2000/svg"
   xmlns="http://www.w3.org/2000/svg"
   xmlns:sodipodi="http://sodipodi.sourceforge.net/DTD/sodipodi-0.dtd"
   xmlns:inkscape="http://www.inkscape.org/namespaces/inkscape"
   width="24px"
   height="24px"
   viewBox="0 0 24 24"
   version="1.1"
   id="SVGRoot"
   inkscape:version="0.92.4 (5da689c313, 2019-01-14)"
   sodipodi:docname="filter-edit-icon.svg">
  <defs
     id="defs1366" />
  <sodipodi:namedview
     id="base"
     pagecolor="#ffffff"
     bordercolor="#666666"
     borderopacity="1.0"
     inkscape:pageopacity="0.0"
     inkscape:pageshadow="2"
     inkscape:zoom="10.666667"
     inkscape:cx="15.375"
     inkscape:cy="12"
     inkscape:document-units="px"
     inkscape:current-layer="layer1"
     showgrid="false"
     inkscape:window-width="1920"
     inkscape:window-height="1001"
     inkscape:window-x="-9"
     inkscape:window-y="-9"
     inkscape:window-maximized="1"
     inkscape:grid-bbox="true" />
  <metadata
     id="metadata1369">
    <rdf:RDF>
      <cc:Work
         rdf:about="">
        <dc:format>image/svg+xml</dc:format>
        <dc:type
           rdf:resource="http://purl.org/dc/dcmitype/StillImage" />
        <dc:title></dc:title>
      </cc:Work>
    </rdf:RDF>
  </metadata>
  <g
     inkscape:label="Layer 1"
     inkscape:groupmode="layer"
     id="layer1">
    <path
       id="path1932"
       d="M 8.15625,11.904281 A 3.3041237,3.0449061 0 0 1 4.8521263,8.859375 3.3041237,3.0449061 0 0 1 8.15625,5.8144689 3.3041237,3.0449061 0 0 1 11.460374,8.859375 3.3041237,3.0449061 0 0 1 8.15625,11.904281 M 13.690658,9.1638657 C 13.459369,9.0420692 13.21982,8.9431097 12.980271,8.859375 13.21982,8.7756368 13.459369,8.6766806 13.690658,8.554884 15.276636,7.7175352 16.16049,6.1950821 16.16875,4.6041187 c -1.478596,-0.7840634 -3.361946,-0.8449615 -4.956186,0 -0.231288,0.1217962 -0.446057,0.2664292 -0.644304,0.4110622 0.0413,-0.2359802 0.06608,-0.4795726 0.06608,-0.7231651 2e-6,-1.689923 -0.9994945,-3.1590902 -2.47809,-3.9507658 -1.4785954,0.7916756 -2.4780929,2.2608428 -2.4780929,3.9507658 0,0.2435925 0.024781,0.4871849 0.066083,0.7231651 C 5.5459923,4.8629357 5.3312243,4.7183027 5.0999355,4.5965063 c -1.5859793,-0.8449614 -3.4693298,-0.7840633 -4.9561855,0 0,1.5757391 0.8838531,3.1210289 2.4780929,3.9507659 C 2.8531314,8.6690687 3.0926804,8.7680283 3.3322293,8.859375 3.0926804,8.9354933 2.8531314,9.0344564 2.6218429,9.1562537 1.0358634,10.001215 0.15201028,11.523669 0.14375,13.107019 c 1.4785954,0.784064 3.3619459,0.844962 4.9561855,0 0.2312888,-0.121796 0.4460568,-0.266429 0.6443042,-0.411062 -0.041301,0.243593 -0.066083,0.487185 -0.066083,0.730777 0,1.689924 0.9994975,3.15909 2.4780933,3.950766 1.4785952,-0.791676 2.478092,-2.260842 2.478092,-3.950766 0,-0.243592 -0.02478,-0.487184 -0.06608,-0.723165 0.198247,0.152245 0.413015,0.289266 0.644303,0.411062 1.58598,0.844961 3.469331,0.784064 4.956185,0 -0.0083,-1.590962 -0.892112,-3.113416 -2.478092,-3.9507653 z"
       inkscape:connector-curvature="0"
       style="stroke-width:0.79296702" />
    <path
       id="path2079"
       d="m 23.360335,13.26467 c 0.229554,-0.239709 0.229554,-0.639223 0,-0.866638 l -1.377321,-1.43825 c -0.217782,-0.239709 -0.600372,-0.239709 -0.829924,0 l -1.083022,1.124785 2.207245,2.304888 M 12.93625,19.540112 V 21.845 h 2.207246 l 6.509902,-6.80403 -2.207245,-2.304888 z"
       inkscape:connector-curvature="0"
       style="stroke-width:0.60147697" />
  </g>
</svg>
