<?xml version="1.0" encoding="UTF-8" standalone="no"?>
<svg
   xmlns:dc="http://purl.org/dc/elements/1.1/"
   xmlns:cc="http://creativecommons.org/ns#"
   xmlns:rdf="http://www.w3.org/1999/02/22-rdf-syntax-ns#"
   xmlns:svg="http://www.w3.org/2000/svg"
   xmlns="http://www.w3.org/2000/svg"
   id="SVGRoot"
   version="1.1"
   viewBox="0 0 24 24"
   height="24px"
   width="24px">
  <defs
     id="defs112" />
  <metadata
     id="metadata115">
    <rdf:RDF>
      <cc:Work
         rdf:about="">
        <dc:format>image/svg+xml</dc:format>
        <dc:type
           rdf:resource="http://purl.org/dc/dcmitype/StillImage" />
        <dc:title></dc:title>
      </cc:Work>
    </rdf:RDF>
  </metadata>
  <g
     id="layer1">
    <path
       style="stroke-width:1.18693793"
       d="M 20.239583,2.33125 H 15.319376 C 14.825,0.942875 13.530209,-0.0625 12,-0.0625 c -1.530209,0 -2.825,1.005375 -3.319375,2.39375 H 3.7604167 A 2.3541667,2.39375 0 0 0 1.40625,4.725 V 21.48125 A 2.3541667,2.39375 0 0 0 3.7604167,23.875 H 20.239583 A 2.3541667,2.39375 0 0 0 22.59375,21.48125 V 4.725 A 2.3541667,2.39375 0 0 0 20.239583,2.33125 M 12,2.33125 A 1.1770833,1.196875 0 0 1 13.177083,3.528125 1.1770833,1.196875 0 0 1 12,4.725 1.1770833,1.196875 0 0 1 10.822917,3.528125 1.1770833,1.196875 0 0 1 12,2.33125 M 6.1145833,7.11875 H 17.885417 V 4.725 h 2.354166 V 21.48125 H 3.7604167 V 4.725 h 2.3541666 z"
       id="path135" />
    <path
       style="stroke-width:0.88448501"
       d="m 18.255134,11.896875 c -0.708929,0.794531 -2.03817,1.589063 -3.456027,1.589063 -1.329241,0 -2.126786,-0.441407 -2.835714,-0.794532 -0.708929,-0.264843 -1.417857,-0.70625 -2.5698662,-0.70625 -1.0633929,0 -2.0381697,0.617969 -2.5698661,1.147657 L 5.9375,11.808594 c 0.7975446,-0.794532 2.0381696,-1.677344 3.4560268,-1.677344 1.3292412,0 2.1267862,0.529687 2.8357142,0.794531 0.708929,0.264844 1.417857,0.794532 2.569866,0.794532 1.063393,0 2.03817,-0.706251 2.569866,-1.235938 l 0.886161,1.4125 m 0.08862,4.325781 C 17.546205,17.017188 16.30558,17.9 14.887723,17.9 c -1.329241,0 -2.126785,-0.441406 -2.835714,-0.794531 -0.708929,-0.264844 -1.417857,-0.794531 -2.5698661,-0.794531 -1.0633929,0 -2.0381697,0.70625 -2.5698661,1.235937 l -0.8861607,-1.4125 c 0.7975446,-0.794531 2.0381696,-1.677344 3.4560268,-1.677344 1.3292411,0 2.1267861,0.441407 2.8357141,0.794532 0.708929,0.264843 1.417857,0.70625 2.569866,0.70625 1.063393,0 2.03817,-0.70625 2.569866,-1.235938 z"
       id="path156" />
  </g>
</svg>
