<?xml version="1.0" encoding="UTF-8" standalone="no"?>
<svg
   xmlns:dc="http://purl.org/dc/elements/1.1/"
   xmlns:cc="http://creativecommons.org/ns#"
   xmlns:rdf="http://www.w3.org/1999/02/22-rdf-syntax-ns#"
   xmlns:svg="http://www.w3.org/2000/svg"
   xmlns="http://www.w3.org/2000/svg"
   id="SVGRoot"
   version="1.1"
   viewBox="0 0 24 24"
   height="24px"
   width="24px">
  <defs
     id="defs1413" />
  <metadata
     id="metadata1416">
    <rdf:RDF>
      <cc:Work
         rdf:about="">
        <dc:format>image/svg+xml</dc:format>
        <dc:type
           rdf:resource="http://purl.org/dc/dcmitype/StillImage" />
        <dc:title></dc:title>
      </cc:Work>
    </rdf:RDF>
  </metadata>
  <g
     id="layer1">
    <path
       style="stroke-width:1.26820409"
       d="M 21.604167,2.528125 H 16.009062 C 15.446875,1.1343125 13.974479,0.125 12.234375,0.125 c -1.740104,0 -3.2125,1.0093125 -3.7746875,2.403125 H 2.8645833 A 2.6770833,2.403125 0 0 0 0.1875,4.93125 V 21.753125 A 2.6770833,2.403125 0 0 0 2.8645833,24.15625 H 21.604167 A 2.6770833,2.403125 0 0 0 24.28125,21.753125 V 4.93125 A 2.6770833,2.403125 0 0 0 21.604167,2.528125 m -9.369792,0 A 1.3385417,1.2015625 0 0 1 13.572917,3.7296875 1.3385417,1.2015625 0 0 1 12.234375,4.93125 1.3385417,1.2015625 0 0 1 10.895833,3.7296875 1.3385417,1.2015625 0 0 1 12.234375,2.528125 M 5.5416667,7.334375 H 18.927083 V 4.93125 h 2.677084 V 21.753125 H 2.8645833 V 4.93125 h 2.6770834 z"
       id="path2000" />
    <path
       style="stroke-width:1.11683524"
       d="m 20.199777,11.313068 c -0.901786,0.995881 -2.592634,1.991762 -4.396206,1.991762 -1.690848,0 -2.705357,-0.553268 -3.607142,-0.995881 -0.901786,-0.33196 -1.803572,-0.885227 -3.2689736,-0.885227 -1.3526786,0 -2.592634,0.774573 -3.2689733,1.438494 L 4.53125,11.202415 C 5.5457589,10.206534 7.1238839,9.1 8.9274554,9.1 c 1.6908486,0 2.7053566,0.6639205 3.6071426,0.995881 0.901786,0.33196 1.803572,0.99588 3.268973,0.99588 1.352679,0 2.592634,-0.885227 3.268974,-1.5491474 l 1.127232,1.7704544 m 0.112723,5.422017 c -1.014509,0.995881 -2.592634,2.102415 -4.396205,2.102415 -1.690849,0 -2.705358,-0.553267 -3.607143,-0.995881 -0.901786,-0.33196 -1.803572,-0.99588 -3.2689734,-0.99588 -1.3526786,0 -2.592634,0.885227 -3.2689732,1.549147 L 4.6439732,16.624432 c 1.0145089,-0.995881 2.5926339,-2.102415 4.3962054,-2.102415 1.6908484,0 2.7053574,0.553267 3.6071424,0.995881 0.901786,0.33196 1.803572,0.885227 3.268974,0.885227 1.352678,0 2.592634,-0.885227 3.268973,-1.549148 z"
       id="path2021" />
  </g>
</svg>
