<?xml version="1.0" encoding="UTF-8" standalone="no"?>
<svg
   xmlns:dc="http://purl.org/dc/elements/1.1/"
   xmlns:cc="http://creativecommons.org/ns#"
   xmlns:rdf="http://www.w3.org/1999/02/22-rdf-syntax-ns#"
   xmlns:svg="http://www.w3.org/2000/svg"
   xmlns="http://www.w3.org/2000/svg"
   id="SVGRoot"
   version="1.1"
   viewBox="0 0 24 24"
   height="24px"
   width="24px">
  <defs
     id="defs1413" />
  <metadata
     id="metadata1416">
    <rdf:RDF>
      <cc:Work
         rdf:about="">
        <dc:format>image/svg+xml</dc:format>
        <dc:type
           rdf:resource="http://purl.org/dc/dcmitype/StillImage" />
        <dc:title></dc:title>
      </cc:Work>
    </rdf:RDF>
  </metadata>
  <g
     id="layer1">
    <path
       style="stroke-width:1.09902"
       d="M 19.708334,2.95 H 15.245313 C 14.796875,1.63775 13.622396,0.6875 12.234375,0.6875 c -1.388021,0 -2.5625,0.95025 -3.0109375,2.2625 H 4.7604166 A 2.1354166,2.2625 0 0 0 2.625,5.2125 V 21.05 a 2.1354166,2.2625 0 0 0 2.1354166,2.2625 H 19.708334 A 2.1354166,2.2625 0 0 0 21.84375,21.05 V 5.2125 A 2.1354166,2.2625 0 0 0 19.708334,2.95 m -7.473959,0 A 1.0677084,1.13125 0 0 1 13.302084,4.08125 1.0677084,1.13125 0 0 1 12.234375,5.2125 1.0677084,1.13125 0 0 1 11.166666,4.08125 1.0677084,1.13125 0 0 1 12.234375,2.95 M 6.8958334,7.475 H 17.572916 V 5.2125 h 2.135418 V 21.05 H 4.7604166 V 5.2125 h 2.1354168 z"
       id="path2000" />
    <path
       style="stroke-width:0.96362412"
       d="m 18.501143,10.9125 c -0.742857,0.9 -2.135714,1.8 -3.621429,1.8 -1.392857,0 -2.228571,-0.5 -2.971428,-0.9 -0.742857,-0.3 -1.485715,-0.8 -2.6928574,-0.8 -1.1142857,0 -2.1357143,0.7 -2.6928572,1.3 L 5.594,10.8125 c 0.8357143,-0.9 2.1357143,-1.9 3.6214286,-1.9 1.3928574,0 2.2285714,0.6 2.9714284,0.9 0.742857,0.3 1.485714,0.9 2.692857,0.9 1.114286,0 2.135715,-0.8 2.692857,-1.4 l 0.928572,1.6 m 0.09286,4.9 c -0.835714,0.9 -2.135714,1.9 -3.621429,1.9 -1.392857,0 -2.228571,-0.5 -2.971428,-0.9 -0.742857,-0.3 -1.485714,-0.9 -2.6928573,-0.9 -1.1142857,0 -2.1357143,0.8 -2.6928571,1.4 l -0.9285715,-1.6 c 0.8357143,-0.9 2.1357143,-1.9 3.6214286,-1.9 1.3928573,0 2.2285713,0.5 2.9714283,0.9 0.742857,0.3 1.485715,0.8 2.692857,0.8 1.114286,0 2.135715,-0.8 2.692858,-1.4 z"
       id="path2063" />
  </g>
</svg>
