<?xml version="1.0" encoding="UTF-8" standalone="no"?>
<svg
   xmlns:dc="http://purl.org/dc/elements/1.1/"
   xmlns:cc="http://creativecommons.org/ns#"
   xmlns:rdf="http://www.w3.org/1999/02/22-rdf-syntax-ns#"
   xmlns:svg="http://www.w3.org/2000/svg"
   xmlns="http://www.w3.org/2000/svg"
   xmlns:sodipodi="http://sodipodi.sourceforge.net/DTD/sodipodi-0.dtd"
   xmlns:inkscape="http://www.inkscape.org/namespaces/inkscape"
   id="SVGRoot"
   version="1.1"
   viewBox="0 0 24 24"
   height="24px"
   width="24px"
   sodipodi:docname="mw-activity.svg"
   inkscape:version="0.92.4 (5da689c313, 2019-01-14)">
  <sodipodi:namedview
     pagecolor="#ffffff"
     bordercolor="#666666"
     borderopacity="1"
     objecttolerance="10"
     gridtolerance="10"
     guidetolerance="10"
     inkscape:pageopacity="0"
     inkscape:pageshadow="2"
     inkscape:window-width="1920"
     inkscape:window-height="1001"
     id="namedview2057"
     showgrid="false"
     inkscape:zoom="9.8333333"
     inkscape:cx="13.525424"
     inkscape:cy="12"
     inkscape:window-x="-9"
     inkscape:window-y="-9"
     inkscape:window-maximized="1"
     inkscape:current-layer="layer1" />
  <defs
     id="defs4336">
    <radialGradient
       id="SVGID_1_"
       cx="115.5686"
       cy="68.449997"
       r="127.8006"
       gradientUnits="userSpaceOnUse"
       gradientTransform="matrix(0.09244971,0,0,0.08542362,-0.1456897,3.6492155)">
      <stop
         offset="0"
         style="stop-color:#328F8A"
         id="stop4138" />
      <stop
         offset="1"
         style="stop-color:#08AC4B"
         id="stop4140" />
    </radialGradient>
  </defs>
  <metadata
     id="metadata4339">
    <rdf:RDF>
      <cc:Work
         rdf:about="">
        <dc:format>image/svg+xml</dc:format>
        <dc:type
           rdf:resource="http://purl.org/dc/dcmitype/StillImage" />
        <dc:title></dc:title>
      </cc:Work>
    </rdf:RDF>
  </metadata>
  <g
     id="layer1"
     transform="translate(2.6440678,-2.8474576)">
    <path
       style="fill:url(#SVGID_1_);stroke-width:0.08886727"
       d="M 9.690964,7.7153801 1.1948312,16.2492 C 1.0653834,16.061271 0.9452421,15.864794 0.8435453,15.668322 L 9.746455,7.4676521 C 9.801725,7.4249061 9.959098,7.2968052 9.912845,7.3565971 9.885215,7.3822401 9.737201,7.6299532 9.690951,7.7153767 Z M 9.45982,8.7490084 c 0,0 0,0 0,0 L 3.9498137,18.828995 C 4.1347068,18.94005 4.3288505,19.0511 4.5230052,19.145066 L 9.478306,9.0394481 c -0.0091,-0.093952 -0.01862,-0.1879327 -0.01862,-0.290442 z m 0.110939,-0.734644 c -0.0091,-0.00855 -0.02763,0.034172 -0.06469,0.076883 L 2.1655592,17.428051 c 0.1663923,0.170844 0.3328418,0.324609 0.5177351,0.47837 L 9.496838,8.3646085 c 0.0091,-0.1025263 0.04624,-0.2477268 0.07394,-0.3502361 z m 4.770408,2.3149776 3.171021,-0.0171 c -0.03722,-0.153756 -0.07395,-0.3844086 -0.110939,-0.5381696 l -2.939896,0.4100346 c -0.03722,0.05124 -0.07395,0.09395 -0.120205,0.145218 z m -2.625572,0.905493 3.106305,6.697211 c 0.157141,-0.136666 0.314341,-0.281899 0.462231,-0.427116 l -3.402148,-6.244468 c -0.04626,-0.0086 -0.110939,-0.01709 -0.16639,-0.02562 z m 2.986119,-1.4522032 c 0.0091,0 0.02763,-0.00855 0.03722,-0.017103 l 2.12633,-1.341133 C 16.782071,8.2706439 16.652628,8.0485327 16.56018,7.8947705 l -1.738056,1.5888793 c -0.02763,0.111055 -0.07395,0.2050185 -0.120206,0.2989832 z m -0.767327,0.9311192 c -0.03722,0.02564 -0.08318,0.0598 -0.120205,0.08542 l 3.855152,1.58888 c 0.0091,-0.153769 0.03722,-0.375863 0.03722,-0.529628 z M 9.570759,9.4665651 6.0576689,19.743028 c 0.2218953,0.06833 0.4437893,0.119579 0.6656378,0.170847 L 9.65396,9.6972084 C 9.62633,9.6203364 9.59867,9.5434564 9.57076,9.4665628 Z m 2.875184,1.8024389 3.781197,5.125417 c 0.101686,-0.15377 0.258842,-0.375863 0.351286,-0.529627 l -3.993828,-4.612875 c -0.03722,0.0086 -0.08319,0.0086 -0.138697,0.0171 z m 0.72111,-0.153769 4.067788,3.357147 c 0.05529,-0.153751 0.138706,-0.392946 0.184896,-0.555251 l -4.12326,-2.853143 c -0.04628,0.01713 -0.09246,0.03417 -0.129453,0.05124 z m -2.144831,-0.0854 1.858239,8.175042 c 0.194144,-0.09395 0.425289,-0.213562 0.600921,-0.316072 L 11.170136,11.09817 c -0.04624,-0.02564 -0.101686,-0.05124 -0.147891,-0.06833 z m -0.628659,-0.384412 0.295839,9.29409 c 0.231145,-0.05123 0.462234,-0.102504 0.693374,-0.162306 L 10.55073,10.765013 c -0.0647,-0.04269 -0.11094,-0.08542 -0.157142,-0.119578 z m -2.033888,9.473474 c 0.129447,0.0086 0.268089,0.0086 0.406787,0.0086 0.09243,0 0.184892,0 0.286589,-0.0086 l 0.970724,-9.840801 C 9.977515,10.226856 9.940585,10.167041 9.894322,10.107249 Z M 11.983702,6.2119274 h 0.03722 c 0.05527,0 0.120205,-0.00855 0.175645,-0.00855 1.516173,0 2.745757,1.1361341 2.745757,2.5370832 0,0.1452164 -0.0186,0.2904374 -0.03722,0.4356582 0.02763,0 0.05529,-0.017103 0.0647,-0.034172 L 15.653927,6.6988434 C 15.51523,6.5450834 15.339587,6.3315225 15.182445,6.1863027 L 14.9698,7.9374868 C 14.932584,7.8264317 14.877366,7.7153835 14.766409,7.5018295 14.729192,7.4334975 14.683204,7.356613 14.627703,7.2882686 L 13.952825,5.1954013 C 13.721681,5.0416408 13.481342,4.896418 13.23172,4.759743 l 0.878271,1.9732857 C 13.952849,6.5963489 13.795647,6.4767595 13.712454,6.4084173 L 11.863458,4.1617757 C 11.56762,4.059267 11.262534,3.9738437 10.948204,3.8969634 l 2.255777,2.3406082 -0.05529,-0.00855 -3.642517,-2.5456168 c -0.240393,-0.017089 -0.489983,-0.034145 -0.7396,-0.034145 -0.0647,0 -0.138698,0 -0.203392,0.00854 L 12.159484,5.8787979 7.1579553,3.7859187 C 6.8713665,3.837176 6.5940253,3.8969694 6.3166629,3.9653077 L 11.734215,5.9300534 4.8836898,4.4693092 C 4.6248548,4.5889041 4.3752089,4.7084931 4.1256032,4.853716 L 11.06858,6.0240193 2.8960238,5.6908646 C 2.7111304,5.8446253 2.4337907,6.0838139 2.2673644,6.2546608 L 10.745008,6.2119719 1.3521146,7.322479 C 1.1949722,7.5360399 1.0562741,7.7581386 0.9175759,7.9802407 L 10.467634,6.4426152 0.2704327,9.3811895 C 0.1964866,9.594747 0.1317348,9.808309 0.0762892,10.030408 L 10.255006,6.681802 -0.1363439,11.456982 c -0.00903,0.145217 -0.00903,0.29044 -0.00903,0.435658 0,0.0598 -0.00903,0.196475 -0.00903,0.256268 L 10.116754,6.9380689 0.0397339,13.592568 c 0.046253,0.213563 0.1109461,0.418579 0.1756431,0.632138 l 9.873648,-7.0901632 c 0.04624,-0.051252 0.101698,-0.1025035 0.147949,-0.1537587 0.110939,-0.093975 0.26809,-0.2221044 0.443732,-0.3416938 0.360537,-0.2391845 0.906007,-0.392949 1.303537,-0.4271161 z"
       id="path4143"
       inkscape:connector-curvature="0" />
    <path
       id="path2675"
       d="m 6.5530497,21.392086 v 1.236791 h 4.5138563 v 2.061322 H 6.5530497 v 1.236794 L 2.0391943,23.659538 6.5530497,21.392086 M 17.085381,20.773689 12.571525,18.506235 v 1.236793 H 8.0576689 v 2.061322 h 4.5138561 v 1.236793 z"
       inkscape:connector-curvature="0"
       style="stroke-width:0.55691135" />
  </g>
</svg>
