<?xml version="1.0" encoding="UTF-8" standalone="no"?>
<svg
   xmlns:dc="http://purl.org/dc/elements/1.1/"
   xmlns:cc="http://creativecommons.org/ns#"
   xmlns:rdf="http://www.w3.org/1999/02/22-rdf-syntax-ns#"
   xmlns:svg="http://www.w3.org/2000/svg"
   xmlns="http://www.w3.org/2000/svg"
   xmlns:sodipodi="http://sodipodi.sourceforge.net/DTD/sodipodi-0.dtd"
   xmlns:inkscape="http://www.inkscape.org/namespaces/inkscape"
   id="SVGRoot"
   version="1.1"
   viewBox="0 0 24 24"
   height="24px"
   width="24px"
   sodipodi:docname="mw-activity.svg"
   inkscape:version="0.92.4 (5da689c313, 2019-01-14)">
  <sodipodi:namedview
     pagecolor="#ffffff"
     bordercolor="#666666"
     borderopacity="1"
     objecttolerance="10"
     gridtolerance="10"
     guidetolerance="10"
     inkscape:pageopacity="0"
     inkscape:pageshadow="2"
     inkscape:window-width="1920"
     inkscape:window-height="1001"
     id="namedview2057"
     showgrid="false"
     inkscape:zoom="9.8333333"
     inkscape:cx="13.525424"
     inkscape:cy="12"
     inkscape:window-x="-9"
     inkscape:window-y="-9"
     inkscape:window-maximized="1"
     inkscape:current-layer="layer1" />
  <defs
     id="defs4336">
    <radialGradient
       id="SVGID_1_"
       cx="115.5686"
       cy="68.449997"
       r="127.8006"
       gradientUnits="userSpaceOnUse"
       gradientTransform="matrix(0.09244971,0,0,0.08542362,-0.1456897,3.6492155)">
      <stop
         offset="0"
         style="stop-color:#328F8A"
         id="stop4138" />
      <stop
         offset="1"
         style="stop-color:#08AC4B"
         id="stop4140" />
    </radialGradient>
  </defs>
  <metadata
     id="metadata4339">
    <rdf:RDF>
      <cc:Work
         rdf:about="">
        <dc:format>image/svg+xml</dc:format>
        <dc:type
           rdf:resource="http://purl.org/dc/dcmitype/StillImage" />
        <dc:title></dc:title>
      </cc:Work>
    </rdf:RDF>
  </metadata>
  <g
     id="layer1"
     transform="translate(2.6440678,-2.8474576)">
    <path
       id="path2675"
       d="m 6.186948,20.30734 v 1.338486 h 4.757925 v 2.230813 H 6.186948 v 1.338489 L 1.4290248,22.761233 6.186948,20.30734 m 11.101823,-0.669244 -4.757923,-2.453895 v 1.338488 H 7.7729231 v 2.230813 h 4.7579249 v 1.338488 z"
       inkscape:connector-curvature="0"
       style="stroke-width:0.59481192" />
    <path
       id="path2696"
       d="m 1.372881,5.847457 a 2,2 0 0 0 -1.99999999,2 v 8.000001 H 1.372881 V 7.847457 h 2 v 7.000001 h 2 V 7.847457 h 2 v 8.000001 h 2 V 7.847457 a 2,2 0 0 0 -2,-2 z"
       inkscape:connector-curvature="0" />
    <path
       id="path2717"
       d="m 12.530848,15.847458 a 2,2 0 0 1 -2,-2 V 5.8474568 h 2 v 8.0000012 h 2 V 6.8474578 h 1.999999 v 7.0000002 h 2 V 5.8474568 h 2 v 8.0000012 a 2,2 0 0 1 -2,2 z"
       inkscape:connector-curvature="0" />
  </g>
</svg>
