<?xml version="1.0" encoding="UTF-8" standalone="no"?>
<svg
   xmlns:dc="http://purl.org/dc/elements/1.1/"
   xmlns:cc="http://creativecommons.org/ns#"
   xmlns:rdf="http://www.w3.org/1999/02/22-rdf-syntax-ns#"
   xmlns:svg="http://www.w3.org/2000/svg"
   xmlns="http://www.w3.org/2000/svg"
   width="24px"
   height="24px"
   viewBox="0 0 24 24"
   version="1.1"
   id="SVGRoot">
  <defs
     id="defs4336">
    <radialGradient
       gradientTransform="matrix(0.06747413,0,0,0.0591044,3.0407014,7.7675926)"
       gradientUnits="userSpaceOnUse"
       r="127.8006"
       cy="68.449997"
       cx="115.5686"
       id="SVGID_1_">
      <stop
         id="stop4138"
         style="stop-color:#328F8A"
         offset="0" />
      <stop
         id="stop4140"
         style="stop-color:#08AC4B"
         offset="1" />
    </radialGradient>
  </defs>
  <metadata
     id="metadata4339">
    <rdf:RDF>
      <cc:Work
         rdf:about="">
        <dc:format>image/svg+xml</dc:format>
        <dc:type
           rdf:resource="http://purl.org/dc/dcmitype/StillImage" />
        <dc:title></dc:title>
      </cc:Work>
    </rdf:RDF>
  </metadata>
  <g
     transform="translate(2.6440678,-2.8474576)"
     id="layer1">
    <path
       id="path4143"
       d="M 10.219953,10.580962 4.0190765,16.485491 C 3.9245994,16.355463 3.8369148,16.219521 3.7626917,16.083583 l 6.4977613,-5.674024 c 0.04034,-0.02957 0.155197,-0.118208 0.121439,-0.07684 -0.02017,0.01774 -0.128192,0.189134 -0.161948,0.248238 z m -0.1687,0.715164 c 0,0 0,0 0,0 l -4.021461,6.974319 c 0.1349437,0.07684 0.2766388,0.153674 0.4183421,0.218688 l 3.6166109,-6.992052 c -0.0066,-0.06501 -0.01359,-0.13003 -0.01359,-0.200956 z m 0.08097,-0.508298 c -0.0066,-0.0059 -0.02017,0.02364 -0.04721,0.05319 l -5.35745,6.460112 c 0.1214412,0.118207 0.2429235,0.224597 0.3778673,0.330983 L 10.07827,11.030155 c 0.0066,-0.07093 0.03375,-0.171401 0.05397,-0.242327 z m 3.481667,1.601728 2.314361,-0.01184 c -0.02716,-0.106386 -0.05397,-0.265969 -0.08097,-0.372356 l -2.145675,0.283702 c -0.02716,0.03546 -0.05397,0.06501 -0.08773,0.100476 z m -1.916266,0.626508 2.267129,4.633784 c 0.114688,-0.09456 0.22942,-0.195045 0.337357,-0.29552 l -2.483047,-4.320532 c -0.03376,-0.0059 -0.08097,-0.01182 -0.12144,-0.01773 z m 2.17941,-1.004775 c 0.0066,0 0.02017,-0.0059 0.02716,-0.01184 l 1.551898,-0.927922 c -0.06071,-0.106385 -0.155192,-0.260058 -0.222664,-0.366446 l -1.268512,1.099342 c -0.02017,0.07684 -0.05397,0.141851 -0.08773,0.206866 z m -0.560033,0.644238 c -0.02716,0.01774 -0.06072,0.04137 -0.08773,0.0591 l 2.813672,1.099342 c 0.0066,-0.106387 0.02716,-0.260059 0.02716,-0.366448 z m -3.184779,-0.862925 -2.5640185,7.110261 c 0.1619497,0.04728 0.3238983,0.08274 0.4858138,0.118208 l 2.1389287,-7.068887 c -0.02017,-0.05319 -0.04035,-0.106386 -0.06073,-0.159583 z m 2.098444,1.247104 2.759695,3.546263 c 0.07422,-0.106387 0.188914,-0.260059 0.256385,-0.366448 l -2.914884,-3.191637 c -0.02716,0.0059 -0.06072,0.0059 -0.101227,0.01183 z m 0.526299,-0.106388 2.968864,2.322803 c 0.04035,-0.106386 0.101229,-0.27188 0.134944,-0.384178 l -3.009348,-1.974087 c -0.03377,0.01184 -0.06748,0.02364 -0.09448,0.03546 z m -1.565398,-0.0591 1.35623,5.656292 c 0.141695,-0.06501 0.310396,-0.147763 0.438581,-0.218688 l -1.686856,-5.390316 c -0.03375,-0.01774 -0.07422,-0.03546 -0.107938,-0.04728 z m -0.458825,-0.265968 0.215918,6.430558 c 0.1687,-0.03545 0.337359,-0.07092 0.506056,-0.112297 L 10.84745,12.690996 c -0.04722,-0.02954 -0.08097,-0.0591 -0.11469,-0.08274 z m -1.4844269,6.554674 c 0.094477,0.0059 0.1956643,0.0059 0.2968924,0.0059 0.067463,0 0.1349433,0 0.2091668,-0.0059 l 0.7084797,-6.808827 c -0.03376,-0.03546 -0.06072,-0.07684 -0.09448,-0.118208 z M 11.8933,9.5407263 h 0.02716 c 0.04034,0 0.08773,-0.0059 0.128193,-0.0059 1.106575,0 2.003984,0.7860887 2.003984,1.7554017 0,0.100475 -0.01358,0.200954 -0.02716,0.301431 0.02017,0 0.04035,-0.01183 0.04722,-0.02364 L 14.572003,9.8776315 C 14.470775,9.7712451 14.342582,9.6234831 14.227892,9.5230052 l -0.155197,1.2116408 c -0.02717,-0.07684 -0.06747,-0.153673 -0.148446,-0.301431 -0.02717,-0.04728 -0.06072,-0.10048 -0.101229,-0.147762 L 13.330458,8.8373946 C 13.161759,8.7310081 12.986348,8.6305288 12.804162,8.5359636 l 0.641004,1.3653118 C 13.330476,9.8067069 13.215743,9.7239632 13.155024,9.6766771 L 11.805541,8.1222315 C 11.589624,8.051306 11.366958,7.9922019 11.137545,7.9390086 l 1.646372,1.6194608 -0.04035,-0.0059 -2.658479,-1.7613115 C 9.9096368,7.7794226 9.7274742,7.7676215 9.5452919,7.7676215 c -0.047221,0 -0.1012281,0 -0.1484455,0.0059 L 12.021594,9.310235 8.3712442,7.8621769 C 8.1620782,7.8976419 7.9596617,7.9390127 7.7572295,7.9862958 L 11.711213,9.3456987 6.7113786,8.3350133 C 6.5224687,8.4177606 6.3402654,8.5005041 6.1580914,8.6009834 L 11.225402,9.4107134 5.2606867,9.1802045 C 5.1257429,9.2865911 4.9233273,9.4520852 4.8018615,9.5702937 L 10.989244,9.5407574 4.1338694,10.309115 C 4.0191795,10.456876 3.9179511,10.610546 3.8167227,10.764218 L 10.786803,9.7003392 3.3444072,11.733531 c -0.053969,0.147761 -0.1012284,0.295523 -0.1416951,0.449193 L 10.631617,9.8658315 3.0475226,13.169767 c -0.00659,0.100481 -0.00659,0.200955 -0.00659,0.301431 0,0.04137 -0.00659,0.13594 -0.00659,0.177312 l 7.4963794,-3.605368 -7.3546816,4.604232 c 0.033757,0.147764 0.080974,0.289614 0.1281925,0.437374 l 7.2062441,-4.905666 c 0.03375,-0.03546 0.07422,-0.07092 0.10798,-0.106386 0.08097,-0.06502 0.195664,-0.1536729 0.323856,-0.2364166 0.263137,-0.1654907 0.661246,-0.2718807 0.951382,-0.2955203 z"
       style="fill:url(#SVGID_1_);stroke-width:0.06315076" />
    <path
       d="M 17.661017,5.3559323 H 1.6610174 a 2,2 0 0 0 -2,2 V 25.355932 l 4,-4 H 17.661017 a 2,2 0 0 0 2,-2 V 7.3559323 a 2,2 0 0 0 -2,-2 m 0,13.9999997 H 3.6610174 l -2,2 V 7.3559323 H 17.661017"
       id="path2633" />
  </g>
</svg>
