<?xml version="1.0" encoding="UTF-8" standalone="no"?>
<!-- Created with Inkscape (http://www.inkscape.org/) -->

<svg
   xmlns:dc="http://purl.org/dc/elements/1.1/"
   xmlns:cc="http://creativecommons.org/ns#"
   xmlns:rdf="http://www.w3.org/1999/02/22-rdf-syntax-ns#"
   xmlns:svg="http://www.w3.org/2000/svg"
   xmlns="http://www.w3.org/2000/svg"
   xmlns:sodipodi="http://sodipodi.sourceforge.net/DTD/sodipodi-0.dtd"
   xmlns:inkscape="http://www.inkscape.org/namespaces/inkscape"
   width="24px"
   height="24px"
   viewBox="0 0 24 24"
   version="1.1"
   id="SVGRoot"
   inkscape:version="0.92.4 (5da689c313, 2019-01-14)"
   sodipodi:docname="mw1.svg">
  <defs
     id="defs4336">
    <radialGradient
       gradientTransform="matrix(0.1212061,0,0,0.12239199,0.39692535,0.24213729)"
       gradientUnits="userSpaceOnUse"
       r="127.8006"
       cy="68.449997"
       cx="115.5686"
       id="SVGID_1_">
      <stop
         id="stop4138"
         style="stop-color:#328F8A"
         offset="0" />
      <stop
         id="stop4140"
         style="stop-color:#08AC4B"
         offset="1" />
    </radialGradient>
  </defs>
  <sodipodi:namedview
     id="base"
     pagecolor="#ffffff"
     bordercolor="#666666"
     borderopacity="1.0"
     inkscape:pageopacity="0.0"
     inkscape:pageshadow="2"
     inkscape:zoom="10.666667"
     inkscape:cx="12"
     inkscape:cy="12"
     inkscape:document-units="px"
     inkscape:current-layer="layer1"
     showgrid="false"
     inkscape:window-width="1920"
     inkscape:window-height="1001"
     inkscape:window-x="-9"
     inkscape:window-y="-9"
     inkscape:window-maximized="1"
     inkscape:grid-bbox="true" />
  <metadata
     id="metadata4339">
    <rdf:RDF>
      <cc:Work
         rdf:about="">
        <dc:format>image/svg+xml</dc:format>
        <dc:type
           rdf:resource="http://purl.org/dc/dcmitype/StillImage" />
        <dc:title></dc:title>
      </cc:Work>
    </rdf:RDF>
  </metadata>
  <g
     inkscape:label="Layer 1"
     inkscape:groupmode="layer"
     id="layer1">
    <path
       id="path4143"
       d="M 13.293259,6.0679964 2.154414,18.294956 C 1.9847016,18.025695 1.8271907,17.744192 1.6938611,17.462693 L 13.366011,5.7130595 c 0.07247,-0.061235 0.278786,-0.2447824 0.218147,-0.1591105 -0.03623,0.036726 -0.230275,0.3916535 -0.290913,0.5140447 z m -0.303041,1.4809444 c 0,0 0,0 0,0 L 5.7663311,21.991196 c 0.2424041,0.159116 0.4969359,0.318222 0.7514824,0.452853 L 13.014456,7.9650732 C 13.002677,7.8304408 12.990061,7.69581 12.990061,7.5489393 Z m 0.14545,-1.0525719 c -0.01178,-0.012218 -0.03623,0.048946 -0.08482,0.1101509 L 3.4270872,19.983966 c 0.2181489,0.244782 0.4363718,0.465092 0.678776,0.685395 L 13.038749,6.9981745 c 0.01178,-0.1468706 0.06063,-0.3549339 0.09694,-0.5018049 z m 6.25424,3.3168225 4.157363,-0.024515 C 23.49847,9.5683741 23.45033,9.2379128 23.40182,9.0176076 l -3.85435,0.5874846 c -0.0488,0.073432 -0.09694,0.1346324 -0.157586,0.208062 z m -3.442257,1.2973566 4.072523,9.595532 c 0.20602,-0.195824 0.412116,-0.403894 0.606008,-0.611956 L 16.1658,11.147267 c -0.06063,-0.01228 -0.145451,-0.02449 -0.218149,-0.03671 z m 3.914953,-2.0806649 c 0.01178,0 0.03623,-0.012283 0.0488,-0.024515 L 22.699117,7.083844 C 22.590055,6.8635469 22.420342,6.5453254 22.29914,6.3250196 l -2.278672,2.2764913 c -0.03623,0.1591154 -0.09694,0.2937414 -0.157586,0.4283738 z m -1.006008,1.3340729 c -0.0488,0.03673 -0.109074,0.08567 -0.157586,0.122383 l 5.054296,2.276492 c 0.01178,-0.220303 0.0488,-0.538524 0.0488,-0.75883 z M 13.135668,8.5770327 8.5298343,23.300791 c 0.2909156,0.09792 0.5818297,0.171348 0.8726841,0.244783 L 13.244749,8.9074922 C 13.208519,8.7973423 13.172269,8.6871886 13.135675,8.5770293 Z m 3.769508,2.5824723 4.957335,7.343519 c 0.133332,-0.220304 0.339351,-0.538525 0.460552,-0.758831 l -5.236105,-6.609167 c -0.0488,0.01229 -0.109074,0.01229 -0.181839,0.02452 z m 0.945408,-0.220304 5.333073,4.810005 c 0.07248,-0.220302 0.18184,-0.563002 0.242405,-0.795547 l -5.405796,-4.087893 c -0.06065,0.02451 -0.121212,0.04895 -0.169713,0.07343 z m -2.811977,-0.122383 2.436242,11.712915 C 17.729381,22.3951 18.032423,22.22375 18.262685,22.07688 L 15.232529,10.914731 c -0.06063,-0.03673 -0.133331,-0.07343 -0.193893,-0.09792 z m -0.824204,-0.550765 0.387861,13.316249 c 0.303042,-0.07343 0.60601,-0.146865 0.909045,-0.232542 L 14.420454,10.437402 c -0.08482,-0.06117 -0.14545,-0.122383 -0.206021,-0.17135 z m -2.666528,13.573264 c 0.169714,0.01229 0.35148,0.01229 0.533319,0.01229 0.121196,0 0.242404,0 0.375733,-0.01229 L 13.729594,9.7397602 C 13.668944,9.6663277 13.62052,9.5806446 13.559881,9.4949783 Z M 16.299152,3.9139006 h 0.0488 c 0.07247,0 0.157587,-0.012217 0.230277,-0.012217 1.98778,0 3.599826,1.6278134 3.599826,3.6350434 0,0.2080622 -0.02439,0.4161323 -0.0488,0.624196 0.03623,0 0.07248,-0.024515 0.08482,-0.04895 L 21.110998,4.6115561 C 20.929158,4.3912534 20.698881,4.0852715 20.49286,3.8772042 L 20.214073,6.3862406 C 20.165273,6.22713 20.092879,6.0680189 19.947415,5.7620444 19.898615,5.6641328 19.838338,5.5539742 19.765574,5.4560626 L 18.880769,2.4574581 C 18.577728,2.2371553 18.262631,2.0290852 17.935363,1.8332619 L 19.086821,4.660517 C 18.880799,4.4646866 18.674703,4.2933432 18.565629,4.1954245 L 16.141507,0.97651516 C 15.753647,0.82964414 15.353664,0.70725288 14.941563,0.59710139 l 2.957434,3.35354121 -0.07248,-0.012217 -4.775516,-3.64728165 c -0.31517,-0.0245089 -0.642394,-0.0489451 -0.969654,-0.0489451 -0.08482,0 -0.18184,0 -0.266658,0.0122173 L 16.529609,3.436608 9.9723626,0.43800354 C 9.5966295,0.51144294 9.2330223,0.59711415 8.8693862,0.69502592 L 15.972063,3.510042 6.9906885,1.4171388 C 6.6513431,1.5884897 6.3240453,1.7598331 5.9967998,1.9679032 L 15.099383,3.6446731 4.384761,3.1673406 C 4.1423568,3.3876434 3.7787507,3.7303448 3.5605574,3.9751282 L 14.675163,3.9139649 2.3606203,5.5050609 C 2.1545989,5.8110427 1.9727589,6.1292572 1.7909189,6.4474789 L 14.311512,4.244423 0.94248237,8.454708 C 0.84553575,8.7606893 0.76064235,9.0666724 0.68795062,9.384887 L 14.032746,4.5871207 0.40917852,11.428833 c -0.0118291,0.208072 -0.0118291,0.416133 -0.0118291,0.624197 0,0.08567 -0.0118291,0.281501 -0.0118291,0.367173 L 13.851513,4.9542916 0.64004666,14.488628 c 0.060638,0.305984 0.14545704,0.599723 0.23027637,0.905702 L 13.815138,5.2357929 C 13.875768,5.1623536 13.94847,5.0889222 14.009106,5.01549 14.154557,4.8808592 14.360584,4.6972684 14.59086,4.5259249 15.063542,4.1832309 15.778678,3.9629207 16.299862,3.9139686 Z"
       inkscape:connector-curvature="0"
       style="fill:url(#SVGID_1_);stroke-width:0.12179761" />
  </g>
</svg>
