<?xml version="1.0" encoding="UTF-8" standalone="no"?>
<svg
   xmlns:dc="http://purl.org/dc/elements/1.1/"
   xmlns:cc="http://creativecommons.org/ns#"
   xmlns:rdf="http://www.w3.org/1999/02/22-rdf-syntax-ns#"
   xmlns:svg="http://www.w3.org/2000/svg"
   xmlns="http://www.w3.org/2000/svg"
   id="SVGRoot"
   version="1.1"
   viewBox="0 0 24 24"
   height="24px"
   width="24px">
  <defs
     id="defs815" />
  <metadata
     id="metadata818">
    <rdf:RDF>
      <cc:Work
         rdf:about="">
        <dc:format>image/svg+xml</dc:format>
        <dc:type
           rdf:resource="http://purl.org/dc/dcmitype/StillImage" />
        <dc:title></dc:title>
      </cc:Work>
    </rdf:RDF>
  </metadata>
  <g
     id="layer1">
    <path
       style="stroke-width:1.26325977"
       d="M 21.34375,2.434375 H 15.792187 C 15.234375,1.0405625 13.773437,0.03125 12.046875,0.03125 c -1.726563,0 -3.1875,1.0093125 -3.7453125,2.403125 H 2.75 A 2.65625,2.403125 0 0 0 0.09375,4.8375 V 21.659375 A 2.65625,2.403125 0 0 0 2.75,24.0625 H 21.34375 A 2.65625,2.403125 0 0 0 24,21.659375 V 4.8375 A 2.65625,2.403125 0 0 0 21.34375,2.434375 m -9.296875,0 A 1.328125,1.2015625 0 0 1 13.375,3.6359375 1.328125,1.2015625 0 0 1 12.046875,4.8375 1.328125,1.2015625 0 0 1 10.71875,3.6359375 1.328125,1.2015625 0 0 1 12.046875,2.434375 M 5.40625,7.240625 H 18.6875 V 4.8375 h 2.65625 V 21.659375 H 2.75 V 4.8375 h 2.65625 z"
       id="path1381" />
    <path
       style="stroke-width:0.84482276"
       d="M 19.006,12.33333 H 9.1236471 V 10.6 H 19.006 v 1.73333 m 0,5.2 H 9.1236471 V 15.8 H 19.006 v 1.73333 M 5.006,8 h 1.6470588 v 9.53333 H 5.006 V 8 M 6.6530588,19.26667 V 21 H 5.006 v -1.73333 z"
       id="path1402" />
  </g>
</svg>
