<?xml version="1.0" encoding="UTF-8" standalone="no"?>
<svg
   xmlns:dc="http://purl.org/dc/elements/1.1/"
   xmlns:cc="http://creativecommons.org/ns#"
   xmlns:rdf="http://www.w3.org/1999/02/22-rdf-syntax-ns#"
   xmlns:svg="http://www.w3.org/2000/svg"
   xmlns="http://www.w3.org/2000/svg"
   id="SVGRoot"
   version="1.1"
   viewBox="0 0 24 24"
   height="24px"
   width="24px">
  <defs
     id="defs815" />
  <metadata
     id="metadata818">
    <rdf:RDF>
      <cc:Work
         rdf:about="">
        <dc:format>image/svg+xml</dc:format>
        <dc:type
           rdf:resource="http://purl.org/dc/dcmitype/StillImage" />
        <dc:title></dc:title>
      </cc:Work>
    </rdf:RDF>
  </metadata>
  <g
     id="layer1">
    <g
       transform="translate(0.140625,-0.1875)"
       id="layer1-2">
      <path
         style="stroke-width:1.09902"
         d="M 19.708334,2.95 H 15.245313 C 14.796875,1.63775 13.622396,0.6875 12.234375,0.6875 c -1.388021,0 -2.5625,0.95025 -3.0109375,2.2625 H 4.7604166 A 2.1354166,2.2625 0 0 0 2.625,5.2125 V 21.05 a 2.1354166,2.2625 0 0 0 2.1354166,2.2625 H 19.708334 A 2.1354166,2.2625 0 0 0 21.84375,21.05 V 5.2125 A 2.1354166,2.2625 0 0 0 19.708334,2.95 m -7.473959,0 A 1.0677084,1.13125 0 0 1 13.302084,4.08125 1.0677084,1.13125 0 0 1 12.234375,5.2125 1.0677084,1.13125 0 0 1 11.166666,4.08125 1.0677084,1.13125 0 0 1 12.234375,2.95 M 6.8958334,7.475 H 17.572916 V 5.2125 h 2.135418 V 21.05 H 4.7604166 V 5.2125 h 2.1354168 z"
         id="path2000" />
    </g>
    <path
       style="stroke-width:0.51843971"
       d="m 7.0129325,17.744853 5.2982815,-4.675239 -0.772666,-0.691546 -0.397371,0.345773 c -0.215243,0.189931 -0.562942,0.189931 -0.778185,0 L 9.9711395,12.378068 c -0.2152433,-0.189932 -0.2152433,-0.496745 0,-0.686676 L 13.094919,8.9349488 c 0.215242,-0.1899314 0.562943,-0.1899314 0.778185,0 l 0.391852,0.3457729 c 0.215243,0.1899316 0.215243,0.4967442 0,0.6866758 l -0.391852,0.3360335 0.783704,0.696415 c 0.215243,-0.189931 0.562943,-0.189931 0.778185,0 0.215243,0.189932 0.215243,0.501615 0,0.691546 l 0.778185,0.686676 0.391852,-0.345773 c 0.215243,-0.189932 0.568462,-0.189932 0.783705,0 l 0.386333,0.345773 c 0.215243,0.189931 0.215243,0.501614 0,0.691546 l -3.11826,2.751573 c -0.215243,0.189931 -0.568462,0.189931 -0.783704,0 l -0.386333,-0.340903 c -0.220762,-0.189931 -0.220762,-0.501614 0,-0.691546 l 0.386333,-0.345773 -0.778185,-0.686676 -5.3038014,4.68011 c -0.2152433,0.189931 -0.5629428,0.189931 -0.7781851,0 -0.2152433,-0.189932 -0.2152433,-0.501614 0,-0.691546 M 16.78164,17.121488 a 1.1038088,0.97400823 0 0 1 1.103809,0.974008 V 18.5825 h -5.519044 v -0.487004 a 1.1038088,0.97400823 0 0 1 1.103809,-0.974008 z"
       id="path1409" />
  </g>
</svg>
