<?xml version="1.0" encoding="UTF-8" standalone="no"?>
<!-- Created with Inkscape (http://www.inkscape.org/) -->

<svg
   xmlns:dc="http://purl.org/dc/elements/1.1/"
   xmlns:cc="http://creativecommons.org/ns#"
   xmlns:rdf="http://www.w3.org/1999/02/22-rdf-syntax-ns#"
   xmlns:svg="http://www.w3.org/2000/svg"
   xmlns="http://www.w3.org/2000/svg"
   xmlns:sodipodi="http://sodipodi.sourceforge.net/DTD/sodipodi-0.dtd"
   xmlns:inkscape="http://www.inkscape.org/namespaces/inkscape"
   width="24px"
   height="24px"
   viewBox="0 0 24 24"
   version="1.1"
   id="SVGRoot"
   inkscape:version="0.92.4 (5da689c313, 2019-01-14)"
   sodipodi:docname="reg-rep.svg">
  <defs
     id="defs815" />
  <sodipodi:namedview
     id="base"
     pagecolor="#ffffff"
     bordercolor="#666666"
     borderopacity="1.0"
     inkscape:pageopacity="0.0"
     inkscape:pageshadow="2"
     inkscape:zoom="10.666667"
     inkscape:cx="13.40625"
     inkscape:cy="12"
     inkscape:document-units="px"
     inkscape:current-layer="layer1"
     showgrid="false"
     inkscape:window-width="1920"
     inkscape:window-height="1001"
     inkscape:window-x="-9"
     inkscape:window-y="-9"
     inkscape:window-maximized="1"
     inkscape:grid-bbox="true" />
  <metadata
     id="metadata818">
    <rdf:RDF>
      <cc:Work
         rdf:about="">
        <dc:format>image/svg+xml</dc:format>
        <dc:type
           rdf:resource="http://purl.org/dc/dcmitype/StillImage" />
        <dc:title></dc:title>
      </cc:Work>
    </rdf:RDF>
  </metadata>
  <g
     inkscape:label="Layer 1"
     inkscape:groupmode="layer"
     id="layer1">
    <g
       id="layer1-2"
       transform="translate(0.140625,-0.1875)">
      <path
         id="path2000"
         d="M 19.708334,2.95 H 15.245313 C 14.796875,1.63775 13.622396,0.6875 12.234375,0.6875 c -1.388021,0 -2.5625,0.95025 -3.0109375,2.2625 H 4.7604166 A 2.1354166,2.2625 0 0 0 2.625,5.2125 V 21.05 a 2.1354166,2.2625 0 0 0 2.1354166,2.2625 H 19.708334 A 2.1354166,2.2625 0 0 0 21.84375,21.05 V 5.2125 A 2.1354166,2.2625 0 0 0 19.708334,2.95 m -7.473959,0 A 1.0677084,1.13125 0 0 1 13.302084,4.08125 1.0677084,1.13125 0 0 1 12.234375,5.2125 1.0677084,1.13125 0 0 1 11.166666,4.08125 1.0677084,1.13125 0 0 1 12.234375,2.95 M 6.8958334,7.475 H 17.572916 V 5.2125 h 2.135418 V 21.05 H 4.7604166 V 5.2125 h 2.1354168 z"
         style="stroke-width:1.09902"
         inkscape:connector-curvature="0" />
    </g>
    <path
       id="path1409"
       d="m 5.6775649,18.864925 6.4185201,-5.57065 -0.936034,-0.823992 -0.481389,0.411996 c -0.260753,0.226307 -0.681967,0.226307 -0.94272,0 L 9.261239,12.470283 c -0.260754,-0.226308 -0.260754,-0.591883 0,-0.81819 l 3.784253,-3.2843622 c 0.260752,-0.2263074 0.681969,-0.2263074 0.94272,0 l 0.474703,0.411996 c 0.260753,0.2263082 0.260753,0.5918822 0,0.8181892 l -0.474703,0.400391 0.949406,0.829794 c 0.260753,-0.226307 0.681969,-0.226307 0.94272,0 0.260753,0.226308 0.260753,0.597685 0,0.823992 l 0.94272,0.81819 0.474703,-0.411996 c 0.260753,-0.226308 0.688655,-0.226308 0.949408,0 l 0.468017,0.411996 c 0.260752,0.226307 0.260752,0.597684 0,0.823992 l -3.777568,3.27856 c -0.260752,0.226307 -0.688654,0.226307 -0.949406,0 l -0.468017,-0.406194 c -0.267438,-0.226306 -0.267438,-0.597684 0,-0.823992 l 0.468017,-0.411996 -0.94272,-0.818189 -6.425207,5.576453 c -0.2607531,0.226307 -0.6819682,0.226307 -0.9427201,0 -0.2607532,-0.226308 -0.2607532,-0.597684 0,-0.823992 M 17.511713,18.122172 a 1.3371919,1.1605522 0 0 1 1.337192,1.160552 V 19.863 h -6.68596 v -0.580276 a 1.3371919,1.1605522 0 0 1 1.337193,-1.160552 z"
       inkscape:connector-curvature="0"
       style="stroke-width:0.62287259" />
  </g>
</svg>
