<?xml version="1.0" encoding="UTF-8" standalone="no"?>
<svg
   xmlns:dc="http://purl.org/dc/elements/1.1/"
   xmlns:cc="http://creativecommons.org/ns#"
   xmlns:rdf="http://www.w3.org/1999/02/22-rdf-syntax-ns#"
   xmlns:svg="http://www.w3.org/2000/svg"
   xmlns="http://www.w3.org/2000/svg"
   id="SVGRoot"
   version="1.1"
   viewBox="0 0 24 24"
   height="24px"
   width="24px">
  <defs
     id="defs815" />
  <metadata
     id="metadata818">
    <rdf:RDF>
      <cc:Work
         rdf:about="">
        <dc:format>image/svg+xml</dc:format>
        <dc:type
           rdf:resource="http://purl.org/dc/dcmitype/StillImage" />
        <dc:title></dc:title>
      </cc:Work>
    </rdf:RDF>
  </metadata>
  <g
     id="layer1">
    <g
       transform="matrix(0.71768256,0,0,0.71568442,0,0.2336842)"
       id="g1495">
      <g
         id="g1434">
	<g
   id="g1432">
		<path
   d="m 11.452,5.3 7.317,4.225 C 18.972,9.641 19.23,9.571 19.347,9.37 L 19.558,9.004 C 19.675,8.803 19.605,8.544 19.404,8.427 L 12.086,4.202 C 11.884,4.085 11.625,4.155 11.509,4.356 L 11.298,4.722 C 11.181,4.924 11.25,5.183 11.452,5.3 Z"
   id="path1422" />

		<path
   d="m 5.115,16.277 7.318,4.226 c 0.202,0.116 0.461,0.047 0.577,-0.154 l 0.211,-0.365 c 0.117,-0.201 0.048,-0.461 -0.154,-0.577 L 5.749,15.182 C 5.547,15.065 5.288,15.135 5.172,15.336 l -0.211,0.366 c -0.118,0.199 -0.049,0.458 0.154,0.575 z"
   id="path1424" />

		<path
   d="m 30.92,21.44 -14.646,-7.591 1.969,-3.41 C 18.359,10.238 18.29,9.978 18.09,9.862 L 11.502,6.059 C 11.301,5.943 11.041,6.013 10.925,6.214 l -4.648,8.05 c -0.115,0.201 -0.046,0.461 0.155,0.577 l 6.587,3.802 c 0.201,0.117 0.461,0.047 0.576,-0.154 l 1.97,-3.41 13.896,8.889 c 0.196,0.125 0.451,0.063 0.567,-0.139 l 1.057,-1.83 C 31.2,21.8 31.126,21.548 30.92,21.44 Z"
   id="path1426" />

		<path
   d="m 33.23,22.509 -0.731,-0.422 c -0.2,-0.117 -0.461,-0.047 -0.577,0.154 l -1.269,2.195 c -0.115,0.201 -0.046,0.461 0.155,0.576 l 0.731,0.422 c 0.201,0.117 0.46,0.048 0.577,-0.154 l 1.268,-2.195 c 0.117,-0.201 0.048,-0.461 -0.154,-0.576 z"
   id="path1428" />

		<path
   d="m 17.418,25.114 h -0.881 c 0.111,-0.124 0.185,-0.284 0.185,-0.464 v -0.696 c 0,-0.383 -0.313,-0.697 -0.696,-0.697 H 2.09 c -0.384,0 -0.697,0.314 -0.697,0.697 v 0.696 c 0,0.18 0.074,0.34 0.186,0.464 H 0.697 C 0.312,25.114 0,25.429 0,25.812 v 2.787 c 0,0.383 0.313,0.697 0.697,0.697 H 17.42 c 0.385,0 0.696,-0.314 0.696,-0.697 V 25.81 c 0,-0.381 -0.313,-0.696 -0.698,-0.696 z m -0.991,3.221 H 1.752 c -0.403,0 -0.733,-0.33 -0.733,-0.732 v -0.734 c 0.001,-0.402 0.33,-0.734 0.733,-0.732 h 14.675 c 0.405,0 0.735,0.33 0.734,0.731 l 10e-4,0.735 c -10e-4,0.402 -0.33,0.732 -0.735,0.732 z"
   id="path1430" />

	</g>

</g>
      <g
         id="g1436">
</g>
      <g
         id="g1438">
</g>
      <g
         id="g1440">
</g>
      <g
         id="g1442">
</g>
      <g
         id="g1444">
</g>
      <g
         id="g1446">
</g>
      <g
         id="g1448">
</g>
      <g
         id="g1450">
</g>
      <g
         id="g1452">
</g>
      <g
         id="g1454">
</g>
      <g
         id="g1456">
</g>
      <g
         id="g1458">
</g>
      <g
         id="g1460">
</g>
      <g
         id="g1462">
</g>
      <g
         id="g1464">
</g>
    </g>
  </g>
</svg>
