<?xml version="1.0" encoding="UTF-8" standalone="no"?>
<!-- Created with Inkscape (http://www.inkscape.org/) -->

<svg
   xmlns:dc="http://purl.org/dc/elements/1.1/"
   xmlns:cc="http://creativecommons.org/ns#"
   xmlns:rdf="http://www.w3.org/1999/02/22-rdf-syntax-ns#"
   xmlns:svg="http://www.w3.org/2000/svg"
   xmlns="http://www.w3.org/2000/svg"
   xmlns:sodipodi="http://sodipodi.sourceforge.net/DTD/sodipodi-0.dtd"
   xmlns:inkscape="http://www.inkscape.org/namespaces/inkscape"
   width="24px"
   height="24px"
   viewBox="0 0 24 24"
   version="1.1"
   id="SVGRoot"
   inkscape:version="0.92.4 (5da689c313, 2019-01-14)"
   sodipodi:docname="reg-rep.svg">
  <defs
     id="defs815" />
  <sodipodi:namedview
     id="base"
     pagecolor="#ffffff"
     bordercolor="#666666"
     borderopacity="1.0"
     inkscape:pageopacity="0.0"
     inkscape:pageshadow="2"
     inkscape:zoom="10.666667"
     inkscape:cx="13.40625"
     inkscape:cy="12"
     inkscape:document-units="px"
     inkscape:current-layer="layer1"
     showgrid="false"
     inkscape:window-width="1920"
     inkscape:window-height="1001"
     inkscape:window-x="-9"
     inkscape:window-y="-9"
     inkscape:window-maximized="1"
     inkscape:grid-bbox="true" />
  <metadata
     id="metadata818">
    <rdf:RDF>
      <cc:Work
         rdf:about="">
        <dc:format>image/svg+xml</dc:format>
        <dc:type
           rdf:resource="http://purl.org/dc/dcmitype/StillImage" />
        <dc:title></dc:title>
      </cc:Work>
    </rdf:RDF>
  </metadata>
  <g
     inkscape:label="Layer 1"
     inkscape:groupmode="layer"
     id="layer1">
    <path
       id="path1409"
       d="M 2.3954051,20.588521 11.860974,11.033292 10.480579,9.6199145 9.7706614,10.326604 c -0.384539,0.388181 -1.0057156,0.388181 -1.3902552,0 L 7.6803485,9.6199145 c -0.3845411,-0.3881809 -0.3845411,-1.015246 0,-1.4034249 L 13.261091,2.5828858 c 0.384538,-0.3881807 1.00572,-0.3881807 1.390256,0 l 0.700056,0.7066888 c 0.384542,0.388182 0.384542,1.0152443 0,1.4034243 l -0.700056,0.6867829 1.400115,1.4233302 c 0.384541,-0.3881806 1.005719,-0.3881806 1.390255,0 0.384539,0.3881813 0.384539,1.0251962 0,1.4133776 l 1.390256,1.4034249 0.700058,-0.7066891 c 0.384539,-0.3881807 1.015577,-0.3881807 1.400118,0 l 0.690198,0.7066891 c 0.384537,0.3881795 0.384537,1.0251965 0,1.4133775 l -5.570885,5.623651 c -0.384538,0.388181 -1.015577,0.388181 -1.400115,0 l -0.690198,-0.696737 c -0.394398,-0.388179 -0.394398,-1.025195 0,-1.413378 L 14.651347,13.84014 13.261091,12.436717 3.7856606,22.0019 c -0.3845401,0.388179 -1.0057175,0.388179 -1.3902555,0 -0.3845402,-0.388184 -0.3845402,-1.025196 0,-1.413379 M 19.847552,19.31449 a 1.9719939,1.9906729 0 0 1 1.971993,1.990674 V 22.3005 h -9.859972 v -0.995336 a 1.9719939,1.9906729 0 0 1 1.971998,-1.990674 z"
       inkscape:connector-curvature="0"
       style="stroke-width:0.99065572" />
  </g>
</svg>
